<svg width="34" height="34" viewBox="0 0 34 34" fill="none" xmlns="http://www.w3.org/2000/svg">
<path d="M28.3902 9.514L20.2302 3.89204C18.006 2.35751 14.5918 2.44121 12.4527 4.07339L5.35517 9.52795C3.9385 10.6161 2.81934 12.8481 2.81934 14.6059V24.2315C2.81934 27.7889 5.75184 30.6905 9.36434 30.6905H24.636C28.2485 30.6905 31.181 27.8028 31.181 24.2455V14.7872C31.181 12.9039 29.9485 10.5882 28.3902 9.514ZM18.0627 25.1104C18.0627 25.6824 17.581 26.1567 17.0002 26.1567C16.4193 26.1567 15.9377 25.6824 15.9377 25.1104V20.9253C15.9377 20.3534 16.4193 19.8791 17.0002 19.8791C17.581 19.8791 18.0627 20.3534 18.0627 20.9253V25.1104Z" fill="white"/>
</svg>
