<svg width="34" height="34" viewBox="0 0 34 34" fill="none" xmlns="http://www.w3.org/2000/svg">
<path d="M25.4993 9.98845C25.4143 9.9745 25.3151 9.9745 25.2301 9.98845C23.2751 9.91869 21.7168 8.34231 21.7168 6.38927C21.7168 4.39438 23.346 2.7901 25.3718 2.7901C27.3976 2.7901 29.0268 4.40833 29.0268 6.38927C29.0126 8.34231 27.4543 9.91869 25.4993 9.98845Z" stroke="white" stroke-width="1.5" stroke-linecap="round" stroke-linejoin="round"/>
<path d="M24.0396 20.1442C25.9804 20.4651 28.1196 20.1303 29.6212 19.1398C31.6187 17.8285 31.6187 15.6801 29.6212 14.3688C28.1054 13.3783 25.9379 13.0435 23.9971 13.3783" stroke="white" stroke-width="1.5" stroke-linecap="round" stroke-linejoin="round"/>
<path d="M8.45817 9.98845C8.54317 9.9745 8.64233 9.9745 8.72733 9.98845C10.6823 9.91869 12.2407 8.34231 12.2407 6.38927C12.2407 4.39438 10.6115 2.7901 8.58567 2.7901C6.55983 2.7901 4.93066 4.40833 4.93066 6.38927C4.94483 8.34231 6.50317 9.91869 8.45817 9.98845Z" stroke="white" stroke-width="1.5" stroke-linecap="round" stroke-linejoin="round"/>
<path d="M9.9167 20.1442C7.97587 20.4651 5.83671 20.1303 4.33504 19.1398C2.33754 17.8285 2.33754 15.6801 4.33504 14.3688C5.85087 13.3783 8.01837 13.0435 9.9592 13.3783" stroke="white" stroke-width="1.5" stroke-linecap="round" stroke-linejoin="round"/>
<path d="M17.0003 20.4092C16.9153 20.3953 16.8161 20.3953 16.7311 20.4092C14.7761 20.3395 13.2178 18.7631 13.2178 16.81C13.2178 14.8152 14.8469 13.2109 16.8728 13.2109C18.8986 13.2109 20.5278 14.8291 20.5278 16.81C20.5136 18.7631 18.9553 20.3534 17.0003 20.4092Z" stroke="white" stroke-width="1.5" stroke-linecap="round" stroke-linejoin="round"/>
<path d="M12.877 24.8035C10.8795 26.1148 10.8795 28.2632 12.877 29.5745C15.1437 31.0672 18.8554 31.0672 21.122 29.5745C23.1195 28.2632 23.1195 26.1148 21.122 24.8035C18.8695 23.3248 15.1437 23.3248 12.877 24.8035Z" stroke="white" stroke-width="1.5" stroke-linecap="round" stroke-linejoin="round"/>
</svg>
