<svg width="28" height="28" viewBox="0 0 28 28" fill="none" xmlns="http://www.w3.org/2000/svg">
<path d="M5.83301 11.6667H8.16634C10.4997 11.6667 11.6663 10.5 11.6663 8.16668V5.83334C11.6663 3.50001 10.4997 2.33334 8.16634 2.33334H5.83301C3.49967 2.33334 2.33301 3.50001 2.33301 5.83334V8.16668C2.33301 10.5 3.49967 11.6667 5.83301 11.6667Z" stroke="white" stroke-width="1.5" stroke-miterlimit="10" stroke-linecap="round" stroke-linejoin="round"/>
<path d="M19.833 11.6667H22.1663C24.4997 11.6667 25.6663 10.5 25.6663 8.16668V5.83334C25.6663 3.50001 24.4997 2.33334 22.1663 2.33334H19.833C17.4997 2.33334 16.333 3.50001 16.333 5.83334V8.16668C16.333 10.5 17.4997 11.6667 19.833 11.6667Z" stroke="white" stroke-width="1.5" stroke-miterlimit="10" stroke-linecap="round" stroke-linejoin="round"/>
<path d="M19.833 25.6667H22.1663C24.4997 25.6667 25.6663 24.5 25.6663 22.1667V19.8333C25.6663 17.5 24.4997 16.3333 22.1663 16.3333H19.833C17.4997 16.3333 16.333 17.5 16.333 19.8333V22.1667C16.333 24.5 17.4997 25.6667 19.833 25.6667Z" stroke="white" stroke-width="1.5" stroke-miterlimit="10" stroke-linecap="round" stroke-linejoin="round"/>
<path d="M5.83301 25.6667H8.16634C10.4997 25.6667 11.6663 24.5 11.6663 22.1667V19.8333C11.6663 17.5 10.4997 16.3333 8.16634 16.3333H5.83301C3.49967 16.3333 2.33301 17.5 2.33301 19.8333V22.1667C2.33301 24.5 3.49967 25.6667 5.83301 25.6667Z" stroke="white" stroke-width="1.5" stroke-miterlimit="10" stroke-linecap="round" stroke-linejoin="round"/>
</svg>
