<svg width="34" height="34" viewBox="0 0 34 34" fill="none" xmlns="http://www.w3.org/2000/svg">
<path d="M29.75 9.91665V24.0833C29.75 28.3333 27.625 31.1666 22.6667 31.1666H11.3333C6.375 31.1666 4.25 28.3333 4.25 24.0833V9.91665C4.25 5.66665 6.375 2.83331 11.3333 2.83331H22.6667C27.625 2.83331 29.75 5.66665 29.75 9.91665Z" stroke="white" stroke-width="1.5" stroke-miterlimit="10" stroke-linecap="round" stroke-linejoin="round"/>
<path d="M23.0208 15.5833H10.9792C9.61917 15.5833 8.5 14.4641 8.5 13.1041V9.56248C8.5 8.20248 9.61917 7.08331 10.9792 7.08331H23.0208C24.3808 7.08331 25.5 8.20248 25.5 9.56248V13.1041C25.5 14.4641 24.3808 15.5833 23.0208 15.5833Z" stroke="white" stroke-width="1.5" stroke-miterlimit="10" stroke-linecap="round" stroke-linejoin="round"/>
<path d="M14.5913 21.6467L11.333 24.905" stroke="white" stroke-width="1.5" stroke-miterlimit="10" stroke-linecap="round" stroke-linejoin="round"/>
<path d="M11.376 21.6891L14.6343 24.9475" stroke="white" stroke-width="1.5" stroke-miterlimit="10" stroke-linecap="round" stroke-linejoin="round"/>
<path d="M23.3604 21.7175H23.3887" stroke="white" stroke-width="1.5" stroke-miterlimit="10" stroke-linecap="round" stroke-linejoin="round"/>
<path d="M20.5273 24.7917V24.7633" stroke="white" stroke-width="1.5" stroke-miterlimit="10" stroke-linecap="round" stroke-linejoin="round"/>
</svg>
